<?xml version="1.0" encoding="utf-8"?>
<!-- Generator: Adobe Illustrator 25.1.0, SVG Export Plug-In . SVG Version: 6.00 Build 0)  -->
<svg version="1.1" id="Layer_1" xmlns="http://www.w3.org/2000/svg" xmlns:xlink="http://www.w3.org/1999/xlink" x="0px" y="0px"
	 viewBox="0 0 1920 1080" style="enable-background:new 0 0 1920 1080;" xml:space="preserve">
<style type="text/css">
	.st0{fill:#FFFFFF;stroke:#231F20;stroke-miterlimit:10;}
	.st1{fill:none;stroke:#231F20;stroke-miterlimit:10;}
	.st2{fill:#231F20;}
	.st3{font-family:'MyriadPro-Regular';}
	.st4{font-size:13.1468px;}
	.st5{fill:none;}
</style>
<rect x="532.93" y="195.97" class="st0" width="81.33" height="46.67"/>
<g>
	<polygon class="st0" points="556.59,229.66 595.26,229.66 583.26,237.66 544.59,237.66 	"/>
	<polygon class="st0" points="556.59,225.66 595.26,225.66 583.26,233.66 544.59,233.66 	"/>
	<polygon class="st0" points="556.59,221.66 595.26,221.66 583.26,229.66 544.59,229.66 	"/>
	<polygon class="st0" points="556.59,217.66 595.26,217.66 583.26,225.66 544.59,225.66 	"/>
	<polygon class="st0" points="556.59,213.66 595.26,213.66 583.26,221.66 544.59,221.66 	"/>
	<polygon class="st0" points="556.59,209.66 595.26,209.66 583.26,217.66 544.59,217.66 	"/>
</g>
<g>
	<polygon class="st0" points="733.62,157.75 772.29,157.75 760.29,165.75 721.62,165.75 	"/>
	<polygon class="st0" points="733.62,153.75 772.29,153.75 760.29,161.75 721.62,161.75 	"/>
	<polygon class="st0" points="733.62,149.75 772.29,149.75 760.29,157.75 721.62,157.75 	"/>
	<polygon class="st0" points="733.62,145.75 772.29,145.75 760.29,153.75 721.62,153.75 	"/>
	<polygon class="st0" points="733.62,141.75 772.29,141.75 760.29,149.75 721.62,149.75 	"/>
	<polygon class="st0" points="733.62,137.75 772.29,137.75 760.29,145.75 721.62,145.75 	"/>
</g>
<rect x="947.34" y="89.36" class="st1" width="190.62" height="114.18"/>
<rect x="50.7" y="89.36" class="st1" width="190" height="106.3"/>
<g>
	<g>
		<line class="st1" x1="784.51" y1="144.95" x2="987.72" y2="145.46"/>
		<g>
			<path class="st2" d="M784.92,144.95c1.05-1.04,1.55-3.11,1.6-4.54c-1.44,1.92-3.3,3.6-5.56,4.53c2.25,0.91,4.03,2.69,5.54,4.56
				C786.37,147.97,786,146.1,784.92,144.95z"/>
		</g>
		<g>
			<path class="st2" d="M987.32,145.46c-1.04-1.05-1.54-3.12-1.57-4.55c1.43,1.93,3.29,3.61,5.54,4.56
				c-2.25,0.9-4.04,2.67-5.56,4.53C985.85,148.47,986.23,146.6,987.32,145.46z"/>
		</g>
	</g>
</g>
<g>
	<g>
		<line class="st1" x1="460.54" y1="147.31" x2="663.75" y2="147.82"/>
		<g>
			<path class="st2" d="M460.94,147.31c1.05-1.04,1.55-3.11,1.6-4.54c-1.44,1.92-3.3,3.6-5.56,4.53c2.25,0.91,4.03,2.69,5.54,4.56
				C462.4,150.33,462.03,148.46,460.94,147.31z"/>
		</g>
		<g>
			<path class="st2" d="M663.34,147.82c-1.04-1.05-1.54-3.12-1.57-4.55c1.43,1.93,3.29,3.61,5.54,4.56
				c-2.25,0.9-4.04,2.67-5.56,4.53C661.88,150.82,662.25,148.96,663.34,147.82z"/>
		</g>
	</g>
</g>
<text transform="matrix(0.9128 0 0 1 477.2598 204.9156)" class="st2 st3 st4">data</text>
<text transform="matrix(0.9128 0 0 1 467.2598 225.6637)" class="st2 st3 st4">(JSON)</text>
<text transform="matrix(0.9128 0 0 1 639.0358 225.6637)" class="st2 st3 st4">(JSON)</text>
<text transform="matrix(0.9128 0 0 1 554.7021 279.6637)" class="st2 st3 st4">(JSON)</text>
<text transform="matrix(0.9128 0 0 1 267.2978 142.5104)" class="st2 st3 st4">OSC</text>
<text transform="matrix(0.9128 0 0 1 562.1442 137.754)" class="st2 st3 st4">OSC</text>
<text transform="matrix(0.9128 0 0 1 643.0933 201.9156)" class="st2 st3 st4">data</text>
<text transform="matrix(0.9128 0 0 1 729.9534 120.4881)" class="st2 st3 st4">ui defs</text>
<g>
	<polygon class="st0" points="379.82,163.57 418.48,163.57 406.48,171.57 367.82,171.57 	"/>
	<polygon class="st0" points="379.82,159.57 418.48,159.57 406.48,167.57 367.82,167.57 	"/>
	<polygon class="st0" points="379.82,155.57 418.48,155.57 406.48,163.57 367.82,163.57 	"/>
	<polygon class="st0" points="379.82,151.57 418.48,151.57 406.48,159.57 367.82,159.57 	"/>
	<polygon class="st0" points="379.82,147.57 418.48,147.57 406.48,155.57 367.82,155.57 	"/>
	<polygon class="st0" points="379.82,143.57 418.48,143.57 406.48,151.57 367.82,151.57 	"/>
</g>
<text transform="matrix(0.9128 0 0 1 375.3696 130.4881)" class="st2 st3 st4">io defs</text>
<text transform="matrix(0.9128 0 0 1 856.0114 137.754)" class="st2 st3 st4">view</text>
<text transform="matrix(0.9128 0 0 1 831.3696 167.566)"><tspan x="0" y="0" class="st2 st3 st4">Drawsocket JSON</tspan><tspan x="0" y="15.78" class="st2 st3 st4">HTML/SVG</tspan></text>
<text transform="matrix(0.9128 0 0 1 1021.678 74.2151)" class="st2 st3 st4">editor</text>
<text transform="matrix(0.9128 0 0 1 92.55 68.72)" class="st2 st3 st4">renderer app (Max)</text>
<text transform="matrix(0.9128 0 0 1 92.5499 217.6637)" class="st2 st3 st4">sound/video/IO  etc.</text>
<text transform="matrix(0.9128 0 0 1 558.5383 260.664)" class="st2 st3 st4">score</text>
<g>
	<g>
		<line class="st1" x1="698.47" y1="153.28" x2="604.94" y2="204.57"/>
		<g>
			<path class="st2" d="M698.12,153.47c-0.41,1.42,0.14,3.47,0.8,4.75c0.33-2.38,1.16-4.74,2.68-6.65
				c-2.41,0.29-4.82-0.41-7.05-1.32C695.39,151.53,696.61,152.99,698.12,153.47z"/>
		</g>
		<g>
			<path class="st2" d="M605.29,204.38c1.42,0.41,2.85,1.99,3.57,3.22c-2.18-1-4.62-1.58-7.05-1.32c1.54-1.87,2.25-4.29,2.68-6.65
				C605.12,201.04,605.69,202.85,605.29,204.38z"/>
		</g>
	</g>
</g>
<g>
	<g>
		<line class="st1" x1="541.27" y1="204.64" x2="437.23" y2="164.77"/>
		<g>
			<path class="st2" d="M540.89,204.5c-1.35,0.6-2.55,2.35-3.11,3.68c2.03-1.28,4.37-2.19,6.81-2.26c-1.78-1.65-2.81-3.95-3.55-6.23
				C540.61,201.16,540.29,203.04,540.89,204.5z"/>
		</g>
		<g>
			<path class="st2" d="M437.61,164.91c0.6,1.35,0.33,3.46-0.15,4.81c-0.65-2.31-1.79-4.54-3.55-6.23c2.43-0.04,4.72-1.06,6.81-2.26
				C440.05,162.62,439.03,164.23,437.61,164.91z"/>
		</g>
	</g>
</g>
<g>
	<g>
		<line class="st1" x1="350.14" y1="152.84" x2="163.86" y2="152.48"/>
		<g>
			<path class="st2" d="M349.74,152.84c-1.05,1.04-1.55,3.11-1.59,4.54c1.44-1.92,3.3-3.6,5.56-4.53c-2.25-0.91-4.03-2.69-5.54-4.56
				C348.28,149.83,348.66,151.69,349.74,152.84z"/>
		</g>
		<g>
			<path class="st2" d="M164.26,152.48c1.04,1.05,1.54,3.11,1.58,4.55c-1.43-1.93-3.29-3.61-5.54-4.56c2.25-0.9,4.04-2.67,5.56-4.53
				C165.73,149.47,165.35,151.34,164.26,152.48z"/>
		</g>
	</g>
</g>
<circle class="st2" cx="1021.68" cy="145.21" r="5"/>
<rect x="707.95" y="174.02" class="st5" width="88.42" height="71.28"/>
<text transform="matrix(0.9128 0 0 1 718.7358 183.3574)"><tspan x="0" y="0" class="st2 st3 st4">bi-directional </tspan><tspan x="11.63" y="15.78" class="st2 st3 st4">mapping </tspan><tspan x="-9.92" y="31.55" class="st2 st3 st4">between graphic </tspan><tspan x="12.48" y="47.33" class="st2 st3 st4">and data</tspan></text>
</svg>
