<?xml version="1.0" encoding="utf-8"?>
<!-- Generator: Adobe Illustrator 25.1.0, SVG Export Plug-In . SVG Version: 6.00 Build 0)  -->
<svg version="1.1" id="Layer_1" xmlns="http://www.w3.org/2000/svg" xmlns:xlink="http://www.w3.org/1999/xlink" x="0px" y="0px"
	 viewBox="0 0 1920 1080" style="enable-background:new 0 0 1920 1080;" xml:space="preserve">
<style type="text/css">
	.st0{fill:#FFFFFF;stroke:#231F20;stroke-miterlimit:10;}
	.st1{fill:none;stroke:#231F20;stroke-miterlimit:10;}
	.st2{fill:none;stroke:#231F20;stroke-width:2;stroke-miterlimit:10;}
	.st3{fill:#231F20;}
	.st4{font-family:'MyriadPro-Regular';}
	.st5{font-size:13.1468px;}
	.st6{enable-background:new    ;}
	.st7{fill:none;}
</style>
<rect x="515.5" y="196" class="st0" width="81.3" height="46.7"/>
<rect x="573.3" y="43.8" class="st0" width="81.3" height="46.7"/>
<g>
	<polygon class="st0" points="539.2,229.7 577.8,229.7 565.8,237.7 527.2,237.7 	"/>
	<polygon class="st0" points="539.2,225.7 577.8,225.7 565.8,233.7 527.2,233.7 	"/>
	<polygon class="st0" points="539.2,221.7 577.8,221.7 565.8,229.7 527.2,229.7 	"/>
	<polygon class="st0" points="539.2,217.7 577.8,217.7 565.8,225.7 527.2,225.7 	"/>
	<polygon class="st0" points="539.2,213.7 577.8,213.7 565.8,221.7 527.2,221.7 	"/>
	<polygon class="st0" points="539.2,209.7 577.8,209.7 565.8,217.7 527.2,217.7 	"/>
</g>
<g>
	<polygon class="st0" points="783.1,157.8 821.7,157.8 809.7,165.8 771.1,165.8 	"/>
	<polygon class="st0" points="783.1,153.8 821.7,153.8 809.7,161.8 771.1,161.8 	"/>
	<polygon class="st0" points="783.1,149.8 821.7,149.8 809.7,157.8 771.1,157.8 	"/>
	<polygon class="st0" points="783.1,145.8 821.7,145.8 809.7,153.8 771.1,153.8 	"/>
	<polygon class="st0" points="783.1,141.8 821.7,141.8 809.7,149.8 771.1,149.8 	"/>
	<polygon class="st0" points="783.1,137.8 821.7,137.8 809.7,145.8 771.1,145.8 	"/>
</g>
<rect x="996.8" y="89.4" class="st1" width="190.6" height="114.2"/>
<rect x="755.3" y="23.8" class="st2" width="460.9" height="273.2"/>
<rect x="315" y="23.8" class="st2" width="374" height="273.2"/>
<rect x="31" y="23.8" class="st2" width="209.7" height="273.2"/>
<g>
	<g>
		<line class="st1" x1="834" y1="144.9" x2="1037.2" y2="145.5"/>
		<g>
			<path class="st3" d="M834.4,144.9c1-1,1.5-3.1,1.6-4.5c-1.4,1.9-3.3,3.6-5.6,4.5c2.2,0.9,4,2.7,5.5,4.6
				C835.8,148,835.5,146.1,834.4,144.9z"/>
		</g>
		<g>
			<path class="st3" d="M1036.8,145.5c-1-1.1-1.5-3.1-1.6-4.6c1.4,1.9,3.3,3.6,5.5,4.6c-2.2,0.9-4,2.7-5.6,4.5
				C1035.3,148.5,1035.7,146.6,1036.8,145.5z"/>
		</g>
	</g>
</g>
<g>
	<g>
		<line class="st1" x1="443.2" y1="147.3" x2="650.6" y2="147.8"/>
		<g>
			<path class="st3" d="M443.6,147.3c1.1-1,1.6-3.1,1.6-4.5c-1.5,1.9-3.4,3.6-5.7,4.5c2.3,0.9,4.1,2.7,5.7,4.6
				C445.1,150.3,444.7,148.5,443.6,147.3z"/>
		</g>
		<g>
			<path class="st3" d="M650.2,147.8c-1.1-1.1-1.6-3.1-1.6-4.6c1.5,1.9,3.4,3.6,5.7,4.6c-2.3,0.9-4.1,2.7-5.7,4.5
				C648.7,150.8,649.1,149,650.2,147.8z"/>
		</g>
	</g>
</g>
<g>
	<g>
		<line class="st1" x1="663.2" y1="147.3" x2="762" y2="147.8"/>
		<g>
			<path class="st3" d="M663.6,147.3c1.1-1,1.6-3.1,1.6-4.5c-1.5,1.9-3.4,3.6-5.7,4.5c2.3,0.9,4.1,2.7,5.7,4.6
				C665.1,150.3,664.7,148.5,663.6,147.3z"/>
		</g>
		<g>
			<path class="st3" d="M761.6,147.8c-1.1-1.1-1.6-3.1-1.6-4.6c1.5,1.9,3.4,3.6,5.7,4.6c-2.3,0.9-4.1,2.7-5.7,4.5
				C760.1,150.8,760.5,149,761.6,147.8z"/>
		</g>
	</g>
</g>
<text transform="matrix(0.9128 0 0 1 460.2827 199.1372)" class="st3 st4 st5">data</text>
<text transform="matrix(0.9128 0 0 1 708.5693 142.5102)" class="st3 st4 st5">JSON</text>
<text transform="matrix(0.9128 0 0 1 693.8926 163.7145)" class="st3 st4 st5">WebSocket</text>
<text transform="matrix(0.9128 0 0 1 586.6293 67.1565)" class="st3 st4 st5">web server</text>
<g>
	<g>
		<line class="st1" x1="663.2" y1="67.2" x2="762" y2="67.7"/>
		<g>
			<path class="st3" d="M663.6,67.2c1.1-1,1.6-3.1,1.6-4.5c-1.5,1.9-3.4,3.6-5.7,4.5c2.3,0.9,4.1,2.7,5.7,4.6
				C665.1,70.2,664.7,68.3,663.6,67.2z"/>
		</g>
		<g>
			<path class="st3" d="M761.6,67.7c-1.1-1.1-1.6-3.1-1.6-4.6c1.5,1.9,3.4,3.6,5.7,4.6c-2.3,0.9-4.1,2.7-5.7,4.5
				C760.1,70.7,760.5,68.8,761.6,67.7z"/>
		</g>
	</g>
</g>
<text transform="matrix(0.9128 0 0 1 708.5693 62.3569)" class="st3 st4 st5">HTML</text>
<text transform="matrix(0.9128 0 0 1 709.4814 83.5612)" class="st3 st4 st5">HTTP</text>
<text transform="matrix(0.9128 0 0 1 263.73 147.315)" class="st3 st4 st5">OSC</text>
<text transform="matrix(0.9128 0 0 1 262.8301 167.5657)" class="st3 st4 st5">UDP</text>
<text transform="matrix(0.9128 0 0 1 541.573 141.75)" class="st3 st4 st5">OSC</text>
<text transform="matrix(0.9128 0 0 1 617.8459 195.97)" class="st3 st4 st5">data</text>
<text transform="matrix(0.9128 0 0 1 779.4031 120.4883)" class="st3 st4 st5">ui defs</text>
<g>
	<polygon class="st0" points="362.4,163.6 401,163.6 389,171.6 350.4,171.6 	"/>
	<polygon class="st0" points="362.4,159.6 401,159.6 389,167.6 350.4,167.6 	"/>
	<polygon class="st0" points="362.4,155.6 401,155.6 389,163.6 350.4,163.6 	"/>
	<polygon class="st0" points="362.4,151.6 401,151.6 389,159.6 350.4,159.6 	"/>
	<polygon class="st0" points="362.4,147.6 401,147.6 389,155.6 350.4,155.6 	"/>
	<polygon class="st0" points="362.4,143.6 401,143.6 389,151.6 350.4,151.6 	"/>
</g>
<text transform="matrix(0.9128 0 0 1 357.9368 130.4883)" class="st3 st4 st5">io defs</text>
<text transform="matrix(0.9128 0 0 1 905.4612 137.7539)" class="st3 st4 st5">view</text>
<text transform="matrix(0.9128 0 0 1 880.8196 167.5659)" class="st3 st4 st5">Drawsocket JSON</text>
<text transform="matrix(0.9128 0 0 1 880.8196 183.3462)" class="st3 st4 st5">HTML/CSS/SVG/JS</text>
<text transform="matrix(0.9128 0 0 1 1076.1299 81.3662)" class="st3 st4 st5">editor</text>
<text transform="matrix(0.9128 0 0 1 977.7278 313.6371)" class="st3 st4 st5">browser</text>
<text transform="matrix(0.9128 0 0 1 461.4336 313.7816)" class="st6"><tspan x="0" y="0" class="st3 st4 st5">symbolist server</tspan><tspan x="20.9" y="15.8" class="st3 st4 st5">(node.js)</tspan></text>
<text transform="matrix(0.9128 0 0 1 65.3613 347.6028)" class="st6"><tspan x="0" y="0" class="st3 st4 st5">(Max, Pd, SuperCollider, etc.,</tspan><tspan x="-10.5" y="15.8" class="st3 st4 st5">anything that understands OSC)</tspan></text>
<text transform="matrix(0.9128 0 0 1 50.7 157.03)" class="st3 st4 st5">sound/video/IO  etc.</text>
<text transform="matrix(0.9128 0 0 1 541.1052 260.6641)" class="st3 st4 st5">score</text>
<g>
	<g>
		<line class="st1" x1="657.2" y1="154.5" x2="586.7" y2="204.6"/>
		<g>
			<path class="st3" d="M656.9,154.7c-0.3,1.4,0.1,3.4,0.6,4.6c0.2-2.3,0.9-4.6,2-6.5c-1.8,0.3-3.6-0.4-5.3-1.3
				C654.9,152.8,655.8,154.2,656.9,154.7z"/>
		</g>
		<g>
			<path class="st3" d="M587,204.5c1.1,0.4,2.1,1.9,2.7,3.1c-1.6-1-3.5-1.5-5.3-1.3c1.2-1.8,1.7-4.2,2-6.5
				C586.9,201.2,587.3,203,587,204.5z"/>
		</g>
	</g>
</g>
<g>
	<g>
		<line class="st1" x1="523.8" y1="204.6" x2="419.8" y2="164.8"/>
		<g>
			<path class="st3" d="M523.5,204.5c-1.3,0.6-2.5,2.4-3.1,3.7c2-1.3,4.4-2.2,6.8-2.3c-1.8-1.6-2.8-3.9-3.5-6.2
				C523.2,201.2,522.9,203,523.5,204.5z"/>
		</g>
		<g>
			<path class="st3" d="M420.2,164.9c0.6,1.4,0.3,3.5-0.1,4.8c-0.6-2.3-1.8-4.5-3.5-6.2c2.4,0,4.7-1.1,6.8-2.3
				C422.6,162.6,421.6,164.2,420.2,164.9z"/>
		</g>
	</g>
</g>
<g>
	<g>
		<line class="st1" x1="332.7" y1="152.8" x2="163.9" y2="152.5"/>
		<g>
			<path class="st3" d="M332.3,152.8c-1,1-1.5,3.1-1.6,4.5c1.4-1.9,3.3-3.6,5.6-4.5c-2.2-0.9-4-2.7-5.5-4.6
				C330.8,149.8,331.2,151.7,332.3,152.8z"/>
		</g>
		<g>
			<path class="st3" d="M164.3,152.5c1,1.1,1.5,3.1,1.6,4.6c-1.4-1.9-3.3-3.6-5.5-4.6c2.2-0.9,4-2.7,5.6-4.5
				C165.7,149.5,165.4,151.3,164.3,152.5z"/>
		</g>
	</g>
</g>
<ellipse transform="matrix(0.1602 -0.9871 0.9871 0.1602 756.2185 1179.2488)" class="st3" cx="1071.1" cy="145.2" rx="5" ry="5"/>
<rect x="757.4" y="174" class="st7" width="88.4" height="71.3"/>
<text transform="matrix(0.9128 0 0 1 768.1859 183.3574)" class="st3 st4 st5">bi-directional </text>
<text transform="matrix(0.9128 0 0 1 778.8016 199.1372)" class="st3 st4 st5">mapping </text>
<text transform="matrix(0.9128 0 0 1 759.1307 214.9072)" class="st3 st4 st5">between graphic </text>
<text transform="matrix(0.9128 0 0 1 779.5775 230.6875)" class="st3 st4 st5">and data</text>
<text transform="matrix(0.9128 0 0 1 354.9756 186.636)" class="st3 st4 st5">mapping </text>
<text transform="matrix(0.9128 0 0 1 325.0085 203.7067)" class="st3 st4 st5">for data performance</text>
<text transform="matrix(0.9128 0 0 1 337.6288 219.3052)" class="st6"><tspan x="0" y="0" class="st3 st4 st5">and server-side</tspan><tspan x="22" y="15.8" class="st3 st4 st5">actions</tspan></text>
<text transform="matrix(0.9128 0 0 1 97.2392 313.7817)"><tspan x="0" y="0" class="st3 st4 st5">external media </tspan><tspan x="-17" y="15.8" class="st3 st4 st5">rendering applicaiton</tspan></text>
</svg>
